# xmcd
#
# Track frame offsets:
#	150
#	16818
#	29871
#	45094
#	60268
#	77556
#	96001
#	111900
#	123778
#	141276
#	157024
#	171187
#	188890
#	204966
#
# Disc length: 2973 seconds
#
# Revision: 0
# Processed by: cddbd v1.5.2PL0 Copyright (c) Steve Scherf et al.
# Submitted via: audiograbber 1.83.01
#
DISCID=ad0b9b0e
DTITLE=Truck Stop - Made in Germany
DYEAR=2017
DGENRE=Deutsch Country
TTITLE0=Made In Germany
TTITLE1=Ich guck das Spiel, Schatz
TTITLE2=Ein Hund ohne richtigen Namen
TTITLE3=Mama macht Karriere
TTITLE4=Wäre, würde, hätte
TTITLE5=Wenn Du jemand suchst
TTITLE6=Wenn Männerherzen brechen
TTITLE7=Nachbarn
TTITLE8=Weil du es bist
TTITLE9=Ich hab kein`n Plan
TTITLE10=Nicht der Typ
TTITLE11=Ohne Frauen wie dich
TTITLE12=Raus aus meinem Kopf
TTITLE13=Letzter Halt
EXTD=
EXTT0=
EXTT1=
EXTT2=
EXTT3=
EXTT4=
EXTT5=
EXTT6=
EXTT7=
EXTT8=
EXTT9=
EXTT10=
EXTT11=
EXTT12=
EXTT13=
PLAYORDER=
